<svg version="1.1" id="Layer_1" xmlns="http://www.w3.org/2000/svg" xmlns:xlink="http://www.w3.org/1999/xlink" x="0px" y="0px"
	 width="100%" viewBox="0 0 1024 768" enable-background="new 0 0 1024 768" xml:space="preserve">
<path fill="#000000" opacity="1.000000" stroke="none" 
	d="
M475.999939,536.277222 
	C428.505127,536.274109 381.510345,536.274109 334.515533,536.262695 
	C328.414124,536.261230 325.111328,530.635315 328.049683,525.310425 
	C329.189941,523.244080 331.214752,523.771790 332.950409,523.760498 
	C342.782288,523.696777 352.618286,523.568665 362.445160,523.796143 
	C366.203491,523.883118 368.479004,522.788208 369.320465,519.024170 
	C369.645294,517.571167 370.266846,516.183838 370.761444,514.769531 
	C373.331970,507.418823 373.332886,507.419159 380.654633,508.594940 
	C385.721893,509.408630 389.018188,507.547394 390.554016,502.464447 
	C393.129944,493.939423 393.933228,485.085144 393.448517,476.283844 
	C392.329681,455.967407 389.782806,435.840912 383.011353,416.482391 
	C382.684937,415.549225 382.307251,414.579559 383.328125,413.237976 
	C388.647614,414.378601 393.150177,417.517883 397.466003,420.747955 
	C407.025879,427.902863 413.682312,437.361786 418.450012,448.250336 
	C420.129913,452.086914 418.025726,455.405487 417.395966,458.910126 
	C415.503052,469.444031 414.665497,480.066742 415.143524,490.731079 
	C415.407166,496.612030 414.143219,501.839050 411.385162,506.968658 
	C408.722229,511.921417 406.517761,517.120667 403.963409,522.525818 
	C408.057129,524.314880 411.063141,524.515991 412.841980,520.135254 
	C413.593384,518.284790 414.468964,516.485046 415.234924,514.640137 
	C416.951660,510.505035 418.027679,506.163879 424.563263,508.606903 
	C428.220612,509.973999 430.522980,506.706696 431.821777,503.304871 
	C434.969757,495.059540 434.267395,486.522430 433.298859,478.109070 
	C432.095459,467.655548 429.080597,457.569946 425.299713,447.757385 
	C419.897858,433.738037 410.396881,423.011261 397.947693,414.870544 
	C384.474213,406.059998 371.770081,396.522797 362.862823,382.702789 
	C355.594788,371.426086 351.901184,358.873260 349.019257,345.989288 
	C346.770172,335.934357 346.815857,335.924133 336.835724,334.946625 
	C335.095398,329.910736 335.930603,324.498260 335.147949,319.270935 
	C332.884613,304.153809 325.516602,292.529297 312.730865,284.246857 
	C310.071442,282.524139 307.475739,280.688354 305.437500,278.215363 
	C301.839661,273.850098 301.832947,269.923981 305.714417,264.712006 
	C309.531525,266.722198 312.789978,270.037689 317.086182,271.297791 
	C319.811523,272.097168 323.221985,274.570282 325.171631,271.144440 
	C326.959320,268.003235 323.699005,265.761627 321.579102,263.700317 
	C320.027588,262.191681 318.296112,260.867188 316.755981,259.347961 
	C309.641418,252.329865 309.019196,245.793610 314.611267,237.484634 
	C317.495117,233.199677 319.175140,232.879196 322.928101,236.328018 
	C327.237671,240.288361 331.870544,243.782669 336.696869,247.083466 
	C341.091339,250.088898 345.578644,250.797989 350.352539,248.453125 
	C355.146301,246.098495 359.492157,246.842026 364.151184,249.177078 
	C375.592316,254.911209 386.077423,261.827637 394.437164,271.654968 
	C395.812347,273.271545 397.520294,274.734924 397.616272,277.416107 
	C395.234497,279.157349 392.144165,277.509552 388.712463,279.226257 
	C395.952759,279.873535 402.104340,281.413727 407.868286,284.230194 
	C414.835876,287.634827 415.209717,290.340149 409.171234,295.335693 
	C407.063354,297.079559 404.539062,298.320190 402.394165,300.504211 
	C405.602905,299.971527 408.994141,299.918243 411.973846,298.783905 
	C415.634338,297.390350 418.260834,298.389709 421.141632,300.484253 
	C430.208557,307.076538 436.598969,316.087219 443.207550,324.847992 
	C452.431610,337.076019 465.035889,342.558441 479.783295,343.568817 
	C489.244080,344.216949 498.743103,343.514771 508.235443,343.208954 
	C539.609985,342.198120 570.492493,344.915253 599.626343,357.992706 
	C625.384949,369.555054 643.923950,388.207275 655.111938,414.233002 
	C660.700195,427.232697 666.078064,440.338623 672.864441,452.801697 
	C682.126343,469.811066 693.884460,484.044525 713.203064,490.174896 
	C713.788696,490.360779 714.248962,490.941711 715.281067,491.731140 
	C706.468384,500.037811 696.482239,503.565094 684.701721,501.934570 
	C683.716003,501.798126 682.750732,501.513306 681.776367,501.295715 
	C671.030029,498.895935 670.247070,498.112823 670.050293,487.368103 
	C669.862061,477.088226 667.769409,467.221375 664.325806,457.591309 
	C663.586182,455.522980 662.773071,453.613647 660.346497,452.852051 
	C642.346924,447.202515 634.947388,434.164032 634.822388,416.079010 
	C634.772400,408.843872 632.012207,402.504303 628.092773,396.514374 
	C631.008728,405.367615 631.004883,414.486847 631.176880,423.646210 
	C631.469177,439.206848 639.820679,449.540955 653.669983,455.474731 
	C657.880798,457.278839 659.802795,459.885773 660.997314,463.994598 
	C666.295654,482.220032 666.853088,500.354736 660.651550,518.488037 
	C660.182312,519.860168 659.483521,521.261841 659.940430,522.893127 
	C661.670532,524.322449 663.753113,523.689087 665.660400,523.695190 
	C682.991638,523.750732 700.323181,523.701660 717.654419,523.759216 
	C719.528259,523.765442 722.210938,522.968689 722.884644,525.431885 
	C723.752136,528.603210 723.878479,532.028137 722.645813,535.223755 
	C722.270691,536.196106 720.971741,536.185974 719.971802,536.215820 
	C718.306580,536.265686 716.639648,536.274048 714.973450,536.274109 
	C635.482300,536.276733 555.991150,536.276550 475.999939,536.277222 
M604.862366,495.746338 
	C604.451843,485.826691 599.325684,479.002106 590.994507,474.077576 
	C582.583191,469.105682 573.219971,466.590485 564.172241,463.260132 
	C552.320862,458.897827 542.494629,451.766266 534.275879,442.215759 
	C531.681946,439.201508 532.291077,437.517395 535.455078,435.638855 
	C541.013733,432.338470 546.951965,430.447205 553.364746,429.895447 
	C557.750244,429.518066 560.983398,430.801392 563.136353,435.056671 
	C565.859985,440.439941 569.940002,444.883972 574.283508,449.071625 
	C586.903503,461.238647 601.892151,469.267334 618.501465,474.455231 
	C620.837097,475.184723 622.894653,475.831726 623.219543,478.785156 
	C624.188782,487.595978 624.375488,496.346558 622.774353,505.141907 
	C621.659241,511.267303 619.424622,517.118835 617.988342,523.224792 
	C627.171143,524.372803 627.171387,524.372864 629.735779,516.809265 
	C629.842712,516.493835 629.964539,516.179626 630.030701,515.854858 
	C630.726196,512.440613 632.194336,510.905457 636.224182,511.575226 
	C642.207458,512.569580 645.139709,510.285065 645.920166,504.350342 
	C648.027649,488.325531 641.480225,477.249664 626.309631,472.252747 
	C614.732300,468.439423 603.094849,464.653412 593.033813,457.634277 
	C576.084045,445.809265 561.185547,432.517731 564.518494,407.912903 
	C561.804138,412.392883 560.528748,416.433197 560.089844,420.761017 
	C559.804016,423.579865 558.770020,425.397552 555.444763,425.322296 
	C546.368774,425.116974 538.152283,428.288513 530.118164,432.093781 
	C523.197449,435.371643 516.360229,438.858215 509.293365,441.787415 
	C497.992188,446.471710 486.365936,446.928680 474.581238,443.494507 
	C471.461060,442.585236 469.968903,441.125336 471.324066,437.723175 
	C472.009766,436.001801 472.379669,433.939362 470.624054,432.643951 
	C461.508453,425.917999 458.196259,415.607910 453.843658,405.915741 
	C452.404083,402.710175 450.880463,399.506104 447.209534,395.966400 
	C449.461639,403.604523 451.323273,409.785461 453.102997,415.989868 
	C455.104248,422.966705 457.824005,429.539673 463.457581,434.446960 
	C465.171112,435.939575 464.995422,437.474792 464.325958,439.367004 
	C458.140656,456.849487 455.942352,474.948761 456.355804,493.392609 
	C456.452393,497.702942 455.580261,501.549103 453.655762,505.369049 
	C450.774811,511.087372 448.200012,516.959961 445.452698,522.857849 
	C448.543030,524.172729 451.064148,523.699585 453.509308,523.701599 
	C494.329041,523.734924 535.148865,523.758545 575.968506,523.697266 
	C587.743591,523.679626 585.716003,525.183899 589.002197,514.622559 
	C589.962524,511.536224 591.347473,510.420929 594.800110,511.171295 
	C600.447571,512.398682 604.129456,509.422638 604.747070,503.648254 
	C604.994019,501.339264 604.864563,498.990051 604.862366,495.746338 
M353.426331,260.817474 
	C352.013885,258.757599 350.251434,258.358398 348.656555,260.361420 
	C347.629791,261.650909 347.969299,263.403839 349.577026,264.105316 
	C351.946625,265.139221 353.307190,264.021942 353.426331,260.817474 
z"/>
</svg>